<svg
 xmlns="http://www.w3.org/2000/svg"
 xmlns:xlink="http://www.w3.org/1999/xlink"
 width="755px" height="256px">
<path fill-rule="evenodd"  fill="rgb(0, 0, 0)"
 d="M751.887,206.243 L751.632,209.043 C739.672,212.605 729.239,224.056 725.168,240.088 C704.810,229.909 688.779,216.931 676.056,200.645 C655.189,217.949 628.725,231.690 594.881,240.851 L593.354,238.052 C622.618,223.547 645.774,203.953 663.078,180.797 C653.154,162.221 646.029,140.082 640.685,113.617 C633.814,164.511 614.729,207.261 560.273,240.088 L557.219,236.525 C612.948,177.489 609.894,107.001 610.149,25.063 L587.501,25.063 L585.211,17.938 L685.216,17.938 L698.449,2.161 L731.021,26.335 C729.239,28.880 724.913,30.406 719.315,31.424 C713.971,45.674 703.793,72.394 696.667,89.697 L698.703,89.697 L717.279,71.376 L747.815,98.858 C746.034,101.657 743.744,102.675 737.382,103.439 C729.239,130.921 717.025,156.368 698.958,178.252 C714.226,190.975 731.784,200.391 751.887,206.243 ZM700.485,96.822 L695.141,96.822 L685.216,107.765 L655.189,90.461 C657.480,88.679 660.533,86.389 663.841,84.608 C671.221,68.322 681.145,41.603 686.234,25.063 L645.520,25.063 C645.011,46.692 644.756,67.304 643.484,86.898 C651.372,114.381 663.078,138.046 678.346,157.131 C688.525,138.555 695.904,118.198 700.485,96.822 ZM583.430,45.166 C583.430,45.166 599.207,62.469 606.841,73.157 C606.332,75.956 603.787,77.228 600.224,77.228 L569.688,77.228 L569.688,146.698 C580.376,144.408 591.318,141.863 602.260,139.318 L602.769,141.609 C589.028,153.569 566.635,170.872 532.282,193.266 C531.009,196.828 528.465,199.627 525.157,200.645 L506.071,159.676 C512.433,158.658 522.103,156.622 534.063,154.332 L534.063,77.228 L509.380,77.228 L507.344,70.103 L534.063,70.103 L534.063,1.906 L579.104,5.723 C578.595,9.286 576.813,12.085 569.688,13.103 L569.688,70.103 L583.430,45.166 ZM492.352,223.038 L325.931,223.038 L323.895,215.913 L417.539,215.913 C425.427,173.926 431.789,116.671 434.588,77.228 L484.209,89.188 C483.191,92.496 480.647,95.041 474.031,95.296 C464.361,127.867 446.803,176.980 425.173,215.913 L444.512,215.913 L464.361,189.449 C464.361,189.449 486.754,207.007 499.732,218.967 C498.968,221.766 496.169,223.038 492.352,223.038 ZM489.299,64.505 L345.525,64.505 L343.489,57.380 L444.003,57.380 L462.834,32.442 C462.834,32.442 483.955,49.237 496.424,60.434 C495.915,63.233 492.861,64.505 489.299,64.505 ZM396.164,46.947 C394.637,31.170 386.494,14.884 377.587,4.196 L379.369,2.924 C461.816,7.250 429.499,71.376 396.164,46.947 ZM359.266,81.045 C449.347,157.895 394.891,225.837 372.753,188.176 C373.770,160.439 371.480,116.162 356.467,82.572 L359.266,81.045 ZM328.475,51.018 C328.475,51.018 343.998,68.322 351.886,79.010 C351.123,81.809 348.578,83.081 345.016,83.081 L315.497,83.081 L315.497,151.533 C328.730,149.752 342.980,147.716 357.230,145.426 L357.485,147.716 C341.453,159.167 315.243,175.198 275.546,195.810 C274.019,199.118 270.966,201.917 267.658,202.426 L251.372,159.676 C257.733,158.912 267.658,157.895 279.872,156.368 L279.872,83.081 L255.443,83.081 L253.407,75.956 L279.872,75.956 L279.872,2.670 L324.913,6.487 C324.404,10.049 322.623,12.848 315.497,13.866 L315.497,74.684 L328.475,51.018 ZM182.688,107.001 L203.554,80.537 C203.554,80.537 226.965,98.095 241.215,110.055 C240.452,112.854 237.398,114.126 233.581,114.126 L139.174,114.126 L139.174,229.909 C139.174,232.199 127.468,240.342 107.111,240.342 L99.731,240.342 L99.731,114.126 L2.270,114.126 L0.234,107.001 L99.731,107.001 L99.731,33.969 L17.538,33.969 L15.502,26.844 L169.455,26.844 L189.813,0.888 C189.813,0.888 212.969,18.192 226.710,29.898 C225.947,32.697 223.148,33.969 219.331,33.969 L139.174,33.969 L139.174,107.001 L182.688,107.001 Z"/>
</svg>
