<svg
 xmlns="http://www.w3.org/2000/svg"
 xmlns:xlink="http://www.w3.org/1999/xlink"
 width="1012px" height="256px">
<path fill-rule="evenodd"  fill="rgb(0, 0, 0)"
 d="M973.725,74.376 L1004.261,101.858 C1002.479,104.657 1000.189,105.675 993.828,106.439 C985.685,133.921 973.470,159.368 955.403,181.252 C970.671,193.975 988.229,203.391 1008.332,209.243 L1008.078,212.043 C996.118,215.605 985.685,227.056 981.613,243.088 C961.256,232.909 945.224,219.931 932.501,203.645 C911.635,220.949 885.170,234.690 851.326,243.851 L849.799,241.052 C879.063,226.547 902.219,206.953 919.523,183.797 C909.599,165.221 902.474,143.082 897.130,116.617 C890.259,167.511 871.174,210.261 816.718,243.088 L813.665,239.525 C869.393,180.489 866.339,110.001 866.594,28.063 L843.946,28.063 L841.656,20.938 L941.662,20.938 L954.894,5.161 L987.466,29.335 C985.685,31.880 981.359,33.406 975.760,34.424 C970.417,48.674 960.238,75.394 953.113,92.697 L955.149,92.697 L973.725,74.376 ZM951.586,99.822 L941.662,110.765 L911.635,93.461 C913.925,91.679 916.978,89.389 920.287,87.608 C927.666,71.322 937.590,44.603 942.680,28.063 L901.965,28.063 C901.456,49.692 901.202,70.304 899.929,89.898 C907.818,117.381 919.523,141.046 934.791,160.131 C944.970,141.555 952.349,121.198 956.930,99.822 L951.586,99.822 ZM839.875,48.166 C839.875,48.166 855.652,65.469 863.286,76.157 C862.777,78.956 860.232,80.228 856.670,80.228 L826.134,80.228 L826.134,149.698 C836.821,147.408 847.763,144.863 858.705,142.318 L859.214,144.609 C845.473,156.569 823.080,173.872 788.727,196.266 C787.455,199.828 784.910,202.627 781.602,203.645 L762.517,162.676 C768.878,161.658 778.548,159.622 790.508,157.332 L790.508,80.228 L765.825,80.228 L763.789,73.103 L790.508,73.103 L790.508,4.906 L835.549,8.723 C835.040,12.286 833.259,15.085 826.134,16.103 L826.134,73.103 L839.875,48.166 ZM748.798,226.038 L582.376,226.038 L580.340,218.913 L673.984,218.913 C681.873,176.926 688.234,119.671 691.033,80.228 L740.655,92.188 C739.637,95.496 737.092,98.041 730.476,98.296 C720.806,130.867 703.248,179.980 681.618,218.913 L700.958,218.913 L720.806,192.449 C720.806,192.449 743.199,210.007 756.177,221.967 C755.414,224.766 752.615,226.038 748.798,226.038 ZM745.744,67.505 L601.970,67.505 L599.934,60.380 L700.449,60.380 L719.279,35.442 C719.279,35.442 740.400,52.237 752.869,63.434 C752.360,66.233 749.306,67.505 745.744,67.505 ZM652.609,49.947 C651.082,34.170 642.939,17.884 634.033,7.196 L635.814,5.924 C718.261,10.250 685.944,74.376 652.609,49.947 ZM615.711,84.045 C705.793,160.895 651.337,228.837 629.198,191.176 C630.216,163.439 627.926,119.162 612.912,85.572 L615.711,84.045 ZM584.921,54.018 C584.921,54.018 600.443,71.322 608.332,82.010 C607.568,84.809 605.024,86.081 601.461,86.081 L571.943,86.081 L571.943,154.533 C585.175,152.752 599.425,150.716 613.675,148.426 L613.930,150.716 C597.898,162.167 571.688,178.198 531.991,198.810 C530.465,202.118 527.411,204.917 524.103,205.426 L507.817,162.676 C514.179,161.912 524.103,160.895 536.317,159.368 L536.317,86.081 L511.888,86.081 L509.853,78.956 L536.317,78.956 L536.317,5.670 L581.358,9.487 C580.849,13.049 579.068,15.848 571.943,16.866 L571.943,77.684 L584.921,54.018 ZM486.718,51.219 C478.830,57.835 465.597,65.978 454.655,71.068 L459.490,74.885 C458.727,77.684 455.928,78.956 452.365,78.956 L394.601,78.956 L394.601,103.639 L416.231,103.639 L431.753,84.554 C431.753,84.554 449.312,97.532 459.999,106.693 C459.236,109.492 456.691,110.765 452.874,110.765 L394.601,110.765 L394.601,136.211 L446.512,136.211 L463.053,115.854 C463.053,115.854 481.629,129.595 493.080,139.265 C492.317,142.064 489.517,143.336 485.955,143.336 L394.601,143.336 L394.601,153.261 C394.601,155.805 378.315,161.912 364.828,161.912 L358.212,161.912 L358.212,143.336 L262.278,143.336 L260.242,136.211 L358.212,136.211 L358.212,110.765 L296.377,110.765 L294.341,103.639 L358.212,103.639 L358.212,78.956 L294.086,78.956 L292.560,73.867 C290.524,76.666 288.234,78.956 285.435,80.483 C276.528,85.827 262.533,82.264 258.970,71.068 C256.171,60.380 262.533,52.237 271.439,48.166 C279.836,43.840 290.524,33.152 290.269,21.446 L293.323,21.446 C295.613,26.790 297.140,32.134 298.158,36.969 L366.610,36.969 C365.592,36.460 364.828,35.951 363.811,35.442 C362.793,23.228 355.668,10.759 347.270,3.888 L348.797,2.616 C404.780,-4.255 404.780,27.299 387.985,36.969 L449.057,36.969 L466.361,19.411 L496.642,47.911 C494.607,50.201 492.062,50.965 486.718,51.219 ZM299.430,44.094 C300.703,55.545 298.412,65.215 294.086,71.831 L358.212,71.831 L358.212,47.911 L401.726,51.728 C401.472,54.273 399.945,56.563 394.601,57.326 L394.601,71.831 L413.941,71.831 L429.972,51.983 C429.972,51.983 441.169,60.126 451.347,68.268 C451.602,61.143 451.856,51.728 451.856,44.094 L299.430,44.094 ZM233.800,52.237 L112.928,52.237 C106.312,63.688 98.678,74.885 90.026,85.827 L96.642,88.371 L164.585,88.371 L181.379,69.286 L215.987,96.005 C214.206,98.550 210.643,101.095 204.790,102.113 L204.790,201.355 C204.790,225.275 199.192,238.762 158.986,242.324 C157.968,230.110 156.696,221.458 152.370,215.860 C148.044,210.261 142.700,206.190 128.959,203.645 L128.959,200.591 C128.959,200.591 156.442,202.118 162.294,202.118 C166.366,202.118 167.384,200.337 167.384,197.029 L167.384,174.636 L93.079,174.636 L93.079,231.891 C93.079,234.181 81.883,242.324 63.052,242.324 L56.182,242.324 L56.182,120.434 C40.659,133.412 22.846,144.609 2.234,153.515 L0.199,151.225 C33.025,125.269 56.690,88.371 72.467,52.237 L7.069,52.237 L5.034,45.112 L75.521,45.112 C81.628,29.589 86.463,14.576 89.771,0.580 L138.374,15.339 C137.611,18.138 135.321,20.429 128.705,20.683 C125.397,28.572 121.325,36.969 116.999,45.112 L183.924,45.112 L204.281,19.665 C204.281,19.665 227.438,36.460 241.179,48.166 C240.670,50.965 237.617,52.237 233.800,52.237 ZM93.079,167.511 L167.384,167.511 L167.384,134.939 L93.079,134.939 L93.079,167.511 ZM93.079,127.814 L167.384,127.814 L167.384,95.496 L93.079,95.496 L93.079,127.814 ZM422.338,166.238 L438.115,148.935 L471.196,173.618 C469.669,175.654 466.361,177.944 461.017,179.216 L461.017,233.672 C460.763,235.453 442.695,241.306 431.244,241.306 L424.883,241.306 L424.883,222.476 L332.002,222.476 L332.002,231.891 C332.002,234.945 315.971,242.579 301.466,242.579 L296.377,242.579 L296.377,151.988 L334.038,166.238 L422.338,166.238 ZM332.002,215.351 L424.883,215.351 L424.883,173.363 L332.002,173.363 L332.002,215.351 Z"/>
</svg>
