<svg
        xmlns="http://www.w3.org/2000/svg"
        xmlns:xlink="http://www.w3.org/1999/xlink"
        width="920px" height="354px">
    <path fill-rule="evenodd" fill="rgb(0, 0, 0)"
          d="M896.643,124.644 C896.029,125.464 895.415,126.179 894.801,126.793 C887.636,137.843 880.115,149.353 872.240,161.324 C864.360,173.295 856.480,186.139 848.605,199.846 C840.725,213.558 832.999,228.292 825.431,244.047 C817.858,259.802 810.697,276.991 803.944,295.614 C801.897,301.341 799.235,305.945 795.964,309.427 C792.688,312.904 789.057,315.566 785.067,317.407 C781.077,319.249 776.981,320.477 772.789,321.091 C768.593,321.705 764.550,322.012 760.665,322.012 C758.003,322.012 754.833,321.244 751.149,319.709 C747.466,318.175 743.936,316.228 740.560,313.877 C737.183,311.523 734.315,308.861 731.965,305.897 C729.615,302.928 728.435,299.911 728.435,296.842 C728.435,296.429 728.642,296.022 729.049,295.614 C729.462,294.794 730.076,294.386 730.891,294.386 C731.711,294.386 732.478,295.154 733.193,296.688 C733.908,298.223 735.035,299.859 736.569,301.600 C738.104,303.336 740.353,304.976 743.322,306.511 C746.286,308.045 750.536,308.813 756.061,308.813 C758.516,308.813 761.173,307.326 764.041,304.362 C766.904,301.393 769.820,297.556 772.789,292.852 C775.753,288.142 778.621,282.876 781.384,277.044 C784.146,271.212 786.803,265.428 789.364,259.701 C791.921,253.975 794.223,248.550 796.271,243.433 C798.314,238.320 800.055,234.124 801.489,230.848 C794.324,239.443 787.163,246.402 780.003,251.721 C772.837,257.044 765.984,259.701 759.437,259.701 C755.341,259.701 751.404,258.934 747.620,257.399 C743.831,255.864 740.507,253.869 737.644,251.414 C734.776,248.958 732.531,246.148 730.891,242.973 C729.255,239.802 728.435,236.579 728.435,233.304 C728.435,229.827 729.562,224.815 731.812,218.263 C734.061,211.717 737.078,204.403 740.867,196.317 C744.651,188.235 749.001,179.693 753.912,170.686 C758.823,161.684 763.936,152.783 769.259,143.982 C774.578,135.186 779.897,126.898 785.221,119.119 C790.539,111.345 795.551,104.693 800.261,99.168 C802.103,101.009 804.045,102.851 806.093,104.693 C808.136,106.534 810.083,108.376 811.925,110.218 C813.767,112.059 815.301,113.954 816.529,115.896 C817.757,117.843 818.371,119.839 818.371,121.882 C818.371,123.723 818.112,125.311 817.604,126.639 C817.090,127.973 816.529,129.248 815.915,130.476 C808.136,142.140 800.669,154.010 793.508,166.082 C786.343,178.159 780.103,189.362 774.784,199.693 C769.461,210.028 765.216,218.776 762.046,225.937 C758.871,233.102 757.288,237.601 757.288,239.443 C757.288,242.311 757.643,244.407 758.363,245.735 C759.077,247.068 760.665,247.730 763.120,247.730 C768.032,247.730 773.451,245.227 779.389,240.210 C785.321,235.198 791.513,228.546 797.959,220.258 C804.405,211.971 811.052,202.561 817.911,192.019 C824.764,181.482 831.618,170.739 838.476,159.790 C845.330,148.845 852.135,138.203 858.888,127.867 C865.641,117.536 872.087,108.376 878.226,100.395 C879.454,100.395 881.190,101.215 883.444,102.851 C885.693,104.491 887.943,106.381 890.197,108.529 C892.446,110.678 894.388,112.827 896.029,114.975 C897.664,117.124 898.484,118.611 898.484,119.426 C898.484,121.268 897.870,123.009 896.643,124.644 ZM748.388,80.904 C741.429,88.990 733.396,98.453 724.293,109.297 C715.185,120.146 705.924,131.810 696.514,144.289 C702.447,143.675 710.221,142.294 719.842,140.145 C729.458,137.996 741.223,134.160 755.141,128.635 C755.549,129.862 756.062,131.196 756.676,132.625 C757.083,133.853 757.491,135.287 757.903,136.922 C758.311,138.562 758.517,140.198 758.517,141.833 C758.517,146.744 756.623,150.687 752.839,153.651 C749.050,156.620 744.446,158.922 739.026,160.557 C733.602,162.197 727.871,163.272 721.837,163.780 C715.799,164.293 710.528,164.547 706.029,164.547 C703.574,164.547 701.219,164.394 698.970,164.087 C696.715,163.780 694.672,163.627 692.831,163.627 C694.058,167.722 694.773,171.914 694.979,176.211 C695.181,180.509 695.286,185.012 695.286,189.717 C695.286,203.635 693.392,218.316 689.608,233.764 C685.819,249.217 680.860,263.538 674.721,276.737 C668.582,289.936 661.723,300.933 654.155,309.734 C646.582,318.530 639.115,323.239 631.748,323.853 C625.408,324.261 619.830,323.086 615.019,320.323 C610.214,317.561 606.271,313.618 603.202,308.506 C600.132,303.388 597.984,297.350 596.756,290.396 C595.528,283.437 595.327,276.070 596.142,268.296 C596.482,265.108 597.258,261.512 598.452,257.527 C594.582,259.180 590.844,260.008 587.241,260.008 C582.972,260.008 578.963,259.260 575.217,257.764 C571.467,256.267 568.177,254.272 565.342,251.778 C562.508,249.284 560.177,246.454 558.354,243.280 C556.532,240.109 555.520,236.786 555.318,233.304 C555.318,229.006 556.484,223.433 558.810,216.575 C561.146,209.721 564.282,202.254 568.229,194.168 C569.192,192.197 570.191,190.200 571.220,188.180 C569.232,191.541 567.157,194.818 564.989,198.005 C556.495,210.489 547.747,221.179 538.745,230.081 C529.738,238.982 521.042,245.941 512.654,250.953 C504.261,255.970 497.201,258.473 491.475,258.473 C488.607,258.473 485.489,256.785 482.113,253.409 C478.736,250.032 475.921,246.502 473.672,242.819 C473.058,244.459 472.238,246.148 471.216,247.884 C470.190,249.625 469.068,251.313 467.840,252.948 C466.612,254.589 465.384,255.917 464.156,256.939 C462.929,257.965 461.701,258.473 460.473,258.473 C457.197,258.473 454.128,258.272 451.265,257.860 C448.401,257.452 445.946,256.632 443.898,255.404 C441.855,254.176 440.267,252.387 439.140,250.032 C438.444,248.574 438.003,246.818 437.817,244.766 C435.491,246.829 433.171,248.749 430.857,250.493 C423.797,255.816 417.298,258.473 411.366,258.473 C407.476,258.473 403.793,257.706 400.315,256.171 C396.834,254.637 393.764,252.694 391.107,250.339 C388.445,247.989 386.349,245.327 384.815,242.359 C383.280,239.395 382.512,236.373 382.512,233.304 C382.512,226.963 383.740,220.364 386.196,213.506 C388.651,206.652 392.229,198.978 396.939,190.484 C401.644,181.995 407.322,172.581 413.975,162.245 C420.622,151.915 428.142,140.097 436.535,126.793 C434.694,127.819 432.238,129.200 429.169,130.937 C426.099,132.678 422.569,134.366 418.579,136.001 C416.927,136.680 415.176,137.326 413.367,137.951 C411.653,140.777 409.198,144.881 405.996,150.274 C401.799,157.334 396.835,165.420 391.109,174.523 C385.378,183.631 379.138,193.094 372.385,202.916 C365.632,212.738 358.879,221.793 352.127,230.081 C345.374,238.368 338.822,245.174 332.482,250.493 C326.137,255.816 320.612,258.473 315.907,258.473 C307.312,258.473 300.713,255.917 296.109,250.800 C291.504,245.687 288.895,239.855 288.281,233.304 C288.281,226.143 289.049,219.544 290.584,213.506 C292.118,207.472 293.960,202.101 296.109,197.391 C298.257,192.686 300.507,188.542 302.862,184.959 C305.212,181.382 307.106,178.360 308.540,175.904 C302.368,182.864 295.941,191.050 289.255,200.460 C282.569,209.875 276.402,218.877 270.747,227.472 C265.093,236.066 260.105,243.385 255.788,249.418 C251.467,255.457 248.589,258.473 247.150,258.473 C243.707,258.473 240.211,257.605 236.666,255.864 C233.122,254.128 229.933,251.673 227.098,248.498 C224.269,245.327 221.990,241.543 220.264,237.141 C218.547,232.743 217.684,227.884 217.684,222.561 C217.684,218.269 218.580,213.298 220.347,207.667 C219.542,208.183 218.758,208.441 217.993,208.441 C217.379,208.441 217.072,208.134 217.072,207.520 L217.072,207.213 L217.072,205.985 L217.072,205.678 C217.072,204.451 215.638,203.276 212.775,202.149 C209.907,201.026 204.794,200.460 197.427,200.460 C194.972,205.784 192.310,211.616 189.447,217.956 C186.578,224.301 184.022,230.594 181.773,236.834 C179.519,243.078 177.629,248.958 176.094,254.483 C174.560,260.008 173.792,264.612 173.792,268.296 C173.792,274.228 175.173,278.219 177.936,280.267 C180.699,282.310 182.794,283.336 184.228,283.336 C185.864,283.336 187.499,282.924 189.140,282.108 C189.955,281.696 190.674,281.288 191.288,280.881 L191.595,280.881 L191.902,280.881 C190.468,284.152 188.679,286.813 186.531,288.861 C184.382,290.904 181.466,292.799 177.783,294.540 C174.099,296.276 169.389,297.149 163.663,297.149 C159.159,297.149 155.169,295.408 151.692,291.931 C148.210,288.449 146.474,283.336 146.474,276.583 C146.474,272.694 147.035,268.296 148.162,263.385 C149.284,258.473 150.666,253.255 152.306,247.730 C144.527,254.282 135.932,260.517 126.522,266.454 C117.108,272.387 107.645,277.658 98.130,282.262 C88.614,286.866 79.252,290.549 70.044,293.312 C60.835,296.075 52.548,297.456 45.181,297.456 C39.244,297.456 33.565,296.228 28.146,293.772 C22.726,291.317 17.968,287.734 13.872,283.029 C9.781,278.320 6.506,272.387 4.050,265.226 C1.595,258.066 0.367,249.879 0.367,240.670 C0.367,224.709 2.875,209.055 7.887,193.707 C12.904,178.360 19.656,163.579 28.146,149.353 C36.635,135.133 46.510,121.575 57.766,108.683 C69.018,95.791 80.835,83.873 93.218,72.924 C105.597,61.979 118.235,52.003 131.126,42.996 C144.018,33.994 156.344,26.373 168.114,20.129 C179.878,13.889 190.722,9.078 200.650,5.702 C210.573,2.326 218.808,0.637 225.359,0.637 C230.472,0.637 234.769,1.510 238.251,3.246 C241.728,4.987 244.544,7.289 246.692,10.153 C248.841,13.021 250.424,16.292 251.450,19.975 C252.472,23.658 252.985,27.447 252.985,31.332 C252.985,34.814 252.678,38.190 252.064,41.461 C251.037,46.785 248.889,53.178 245.618,60.646 C242.342,68.118 238.251,75.792 233.340,83.667 C228.429,91.547 222.851,99.374 216.611,107.148 C210.367,114.927 203.768,121.834 196.813,127.867 C189.854,133.905 182.694,138.817 175.327,142.601 C167.960,146.390 160.694,148.279 153.534,148.279 C150.666,148.279 147.495,148.025 144.018,147.512 C140.536,147.003 138.800,146.131 138.800,144.903 L140.642,143.061 C151.893,133.445 162.944,123.215 173.792,112.366 C184.636,101.522 194.305,90.880 202.799,80.444 C211.288,70.008 218.146,60.185 223.364,50.977 C228.582,41.768 231.191,33.994 231.191,27.649 C231.191,26.013 230.932,24.685 230.424,23.658 C229.911,22.637 228.837,22.124 227.201,22.124 C221.470,22.124 214.204,24.124 205.408,28.119 C196.607,32.114 186.991,37.644 176.555,44.713 C166.119,51.783 155.169,60.080 143.711,69.605 C132.249,79.134 121.045,89.480 110.101,100.645 C99.151,111.810 88.662,123.541 78.638,135.833 C68.610,148.131 59.809,160.524 52.241,173.022 C44.668,185.521 38.682,197.813 34.284,209.899 C29.882,221.990 27.685,233.462 27.685,244.320 C27.685,252.924 30.088,259.735 34.898,264.756 C39.704,269.773 47.838,272.286 59.301,272.286 C64.826,272.286 72.346,270.387 81.861,266.593 C91.377,262.790 101.453,257.716 112.096,251.351 C122.733,244.987 133.170,237.596 143.404,229.179 C153.634,220.767 162.023,211.937 168.574,202.700 C161.001,204.547 153.687,206.393 146.627,208.240 C139.568,210.091 132.148,212.350 124.374,215.016 C118.436,217.069 113.678,218.920 110.101,220.561 C106.518,222.201 103.602,223.534 101.353,224.560 C99.098,225.587 97.410,226.412 96.288,227.026 C95.161,227.640 94.187,227.947 93.372,227.947 C92.346,227.947 91.837,226.819 91.837,224.560 C91.837,222.508 92.144,219.788 92.758,216.402 C93.372,213.016 94.087,209.165 94.907,204.853 C95.108,203.626 98.283,201.420 104.422,198.235 C110.561,195.055 118.335,191.770 127.750,188.384 C137.160,184.998 147.596,181.866 159.059,178.988 C170.516,176.116 181.773,174.475 192.823,174.063 L197.120,174.063 C199.777,174.063 203.000,174.216 206.789,174.523 C210.573,174.830 214.103,175.396 217.379,176.211 C220.650,177.032 223.465,178.259 225.820,179.895 C228.170,181.535 229.350,183.684 229.350,186.341 C229.350,186.440 229.341,186.537 229.340,186.636 C231.424,182.617 233.707,178.535 236.254,174.370 C241.880,165.161 248.378,156.006 255.745,146.898 C263.112,137.795 270.733,129.608 278.613,122.342 C286.488,115.081 294.368,109.196 302.248,104.693 C310.123,100.194 317.442,97.940 324.194,97.940 C326.237,97.940 328.079,98.966 329.719,101.009 C331.355,103.057 332.837,105.565 334.170,108.529 C335.499,111.498 336.626,114.721 337.547,118.198 C338.467,121.680 339.235,124.951 339.849,128.021 C341.278,125.978 342.659,124.083 343.993,122.342 C345.321,120.606 346.496,119.225 347.522,118.198 C348.544,116.971 349.566,115.848 350.592,114.822 C352.434,114.822 354.323,115.541 356.270,116.971 C358.213,118.405 360.002,119.992 361.642,121.728 C363.277,123.469 364.659,125.210 365.786,126.946 C366.908,128.687 367.474,129.862 367.474,130.476 C367.474,132.116 367.062,133.752 366.246,135.387 C365.834,136.208 365.426,136.922 365.018,137.536 C355.810,149.200 347.676,160.456 340.616,171.300 C333.556,182.149 327.619,192.019 322.813,200.921 C318.003,209.822 314.420,217.496 312.070,223.942 C309.715,230.388 308.540,235.145 308.540,238.215 C308.540,240.469 309.154,242.004 310.382,242.819 C311.610,243.639 313.451,244.047 315.907,244.047 C319.792,244.047 324.756,241.236 330.794,235.606 C336.827,229.980 343.172,222.973 349.825,214.580 C356.472,206.192 363.124,197.036 369.776,187.108 C376.423,177.185 382.514,167.977 388.040,159.483 C392.478,152.663 396.243,146.747 399.362,141.706 C396.276,142.199 393.115,142.447 389.879,142.447 C385.376,142.447 381.592,141.325 378.522,139.071 C375.453,136.821 372.997,134.160 371.155,131.090 C369.314,128.021 367.980,124.850 367.165,121.575 C366.345,118.304 365.937,115.642 365.937,113.594 C365.937,107.868 367.060,102.290 369.314,96.865 C371.563,91.446 374.532,86.583 378.215,82.285 C381.899,77.988 386.042,74.564 390.647,72.003 C395.251,69.446 399.802,68.166 404.306,68.166 C407.375,68.166 410.339,68.626 413.207,69.547 C416.070,70.468 418.627,71.748 420.881,73.384 C423.130,75.024 424.919,76.914 426.253,79.062 C427.581,81.211 428.248,83.513 428.248,85.969 C428.248,89.652 426.713,94.515 423.643,100.549 C420.574,106.587 417.298,112.573 413.821,118.505 C422.416,114.620 428.910,111.652 433.312,109.604 C437.710,107.561 440.986,106.026 443.135,105.000 C445.283,103.978 446.866,103.211 447.892,102.697 C448.914,102.189 450.348,101.422 452.190,100.395 C453.417,100.395 455.206,101.369 457.561,103.311 C459.911,105.259 462.266,107.407 464.621,109.757 C466.971,112.112 469.072,114.361 470.913,116.510 C472.755,118.659 473.676,120.040 473.676,120.654 L473.676,121.882 C468.352,129.248 463.086,137.181 457.868,145.670 C452.650,154.164 447.686,162.605 442.981,170.993 C438.271,179.386 433.821,187.521 429.629,195.396 C425.432,203.276 421.802,210.335 418.732,216.575 C415.663,222.820 413.255,227.985 411.519,232.076 C409.778,236.172 408.910,238.627 408.910,239.443 C408.910,241.697 409.318,243.433 410.138,244.661 C410.953,245.889 412.593,246.502 415.049,246.502 C419.140,246.502 424.305,243.740 430.550,238.215 C434.005,235.155 437.543,231.656 441.157,227.749 C442.656,223.899 444.640,219.564 447.121,214.733 C452.953,203.376 460.320,190.743 469.221,176.825 C478.123,162.912 488.098,148.332 499.148,133.085 C510.199,117.843 521.143,103.311 531.992,89.499 C542.836,75.686 553.018,63.207 562.533,52.051 C572.049,40.900 579.770,32.358 585.708,26.421 L599.213,36.243 C601.257,38.291 602.283,40.541 602.283,42.996 C602.283,44.022 602.077,45.351 601.669,46.986 C601.257,48.214 599.314,51.030 595.837,55.428 C592.355,59.830 587.904,65.303 582.485,71.849 C577.060,78.401 570.821,85.921 563.761,94.410 C556.701,102.904 549.435,111.752 541.968,120.961 C534.495,130.169 527.028,139.584 519.560,149.200 C512.088,158.821 505.182,168.130 498.842,177.132 C505.594,169.972 512.294,162.706 518.947,155.339 C525.594,147.972 531.733,141.272 537.363,135.234 C542.989,129.200 547.900,124.289 552.097,120.500 C556.289,116.716 559.310,114.822 561.152,114.822 C564.423,114.822 567.699,115.489 570.974,116.817 C574.245,118.150 577.161,119.992 579.722,122.342 C582.279,124.697 584.374,127.560 586.015,130.937 C587.650,134.313 588.470,138.150 588.470,142.447 C588.470,144.701 588.211,147.051 587.703,149.507 C587.190,151.963 586.729,154.317 586.322,156.567 C584.099,162.442 581.662,168.110 579.023,173.584 C579.926,171.962 580.827,170.341 581.769,168.691 C586.848,159.790 592.099,151.094 597.524,142.601 C602.943,134.112 608.315,126.131 613.638,118.659 C618.957,111.191 623.768,104.798 628.065,99.474 C629.293,100.702 631.029,102.390 633.283,104.539 C635.532,106.688 637.734,108.889 639.882,111.139 C642.031,113.393 643.921,115.541 645.561,117.584 C647.196,119.632 648.017,121.066 648.017,121.882 C648.017,122.496 647.964,123.109 647.863,123.723 C647.758,124.337 647.403,124.951 646.789,125.565 C639.422,136.615 632.002,148.433 624.535,161.018 C617.063,173.602 610.415,185.372 604.583,196.317 C598.751,207.266 593.994,216.729 590.310,224.709 C586.627,232.690 584.785,237.601 584.785,239.443 C584.785,242.512 585.193,244.714 586.013,246.042 C586.828,247.375 588.469,248.037 590.924,248.037 C594.698,248.037 599.261,245.827 604.615,241.406 C606.422,237.381 608.503,233.100 610.876,228.546 C619.676,211.664 631.187,192.633 645.407,171.454 C659.627,150.274 675.996,127.613 694.519,103.465 C713.036,79.321 732.734,55.073 753.606,30.718 C755.035,30.718 756.776,31.438 758.824,32.867 C760.867,34.301 762.863,36.042 764.810,38.085 C766.752,40.133 768.388,42.334 769.721,44.684 C771.049,47.039 771.716,49.135 771.716,50.977 C771.716,52.411 769.567,55.734 765.270,60.953 C760.973,66.171 755.342,72.823 748.388,80.904 ZM312.223,156.260 C318.564,150.327 324.089,145.315 328.799,141.219 C327.571,136.922 326.343,133.037 325.115,129.555 C323.887,126.078 322.660,124.337 321.432,124.337 C318.156,124.337 314.372,125.925 310.075,129.095 C305.778,132.270 301.221,136.414 296.416,141.526 C291.605,146.644 286.747,152.423 281.836,158.869 C276.924,165.315 272.368,171.713 268.176,178.053 C263.980,184.398 260.349,190.484 257.280,196.317 C254.210,202.149 252.062,206.906 250.834,210.590 C250.834,210.796 250.628,211.510 250.220,212.738 C249.808,213.966 249.400,215.400 248.992,217.035 C248.580,218.676 248.172,220.364 247.764,222.100 C247.352,223.841 247.150,225.429 247.150,226.858 C247.150,229.520 247.966,230.848 249.606,230.848 C250.421,230.848 252.110,229.160 254.671,225.783 C257.227,222.407 260.397,218.062 264.186,212.738 C267.970,207.419 272.267,201.535 277.078,195.089 C281.884,188.643 287.154,182.250 292.886,175.904 C299.432,168.744 305.878,162.197 312.223,156.260 ZM415.049,90.880 C415.049,87.609 413.001,85.969 408.910,85.969 C406.454,85.969 404.100,86.635 401.850,87.964 C399.596,89.297 397.601,91.033 395.865,93.182 C394.124,95.331 392.690,97.786 391.567,100.549 C390.440,103.311 389.879,106.026 389.879,108.683 C389.879,112.366 390.594,115.489 392.028,118.045 C393.457,120.606 395.097,121.882 396.939,121.882 C398.368,121.882 400.162,120.452 402.311,117.584 C404.459,114.721 406.454,111.445 408.296,107.762 C410.138,104.079 411.720,100.602 413.054,97.326 C414.382,94.055 415.049,91.906 415.049,90.880 ZM558.696,135.080 C558.284,134.467 557.876,134.059 557.469,133.853 C556.855,133.853 553.785,136.615 548.260,142.140 C542.735,147.665 536.184,154.624 528.615,163.013 C521.042,171.406 513.215,180.561 505.134,190.484 C497.048,200.412 490.141,209.875 484.415,218.877 C486.257,223.174 488.353,226.656 490.707,229.313 C493.057,231.975 494.544,233.304 495.158,233.304 C499.657,233.304 505.028,230.186 511.273,223.942 C517.513,217.702 523.704,210.283 529.843,201.688 C535.982,193.094 541.454,184.298 546.265,175.291 C551.071,166.288 554.399,158.922 556.241,153.190 C558.696,147.051 559.924,142.653 559.924,139.992 C559.924,137.948 559.512,136.308 558.696,135.080 ZM678.404,169.459 C671.239,179.693 663.978,190.484 656.611,201.842 C649.244,213.199 642.592,224.608 636.659,236.066 C630.726,247.529 625.815,258.675 621.926,269.524 C618.041,280.367 616.094,290.290 616.094,299.297 C616.094,302.568 617.221,305.691 619.470,308.659 C621.724,311.623 624.587,313.110 628.065,313.110 C629.906,313.110 631.901,312.544 634.050,311.422 C636.199,310.295 638.549,308.247 641.110,305.283 C643.666,302.314 646.429,298.377 649.397,293.465 C652.361,288.554 655.690,282.310 659.373,274.742 C663.258,266.147 666.433,257.505 668.889,248.805 C671.344,240.109 673.287,231.721 674.721,223.635 C676.150,215.553 677.123,207.933 677.637,200.767 C678.145,193.607 678.404,187.161 678.404,181.430 L678.404,169.459 ZM693.445,56.502 C691.805,58.142 690.068,60.238 688.227,62.794 C686.385,65.355 684.491,67.811 682.548,70.161 C680.601,72.516 678.812,74.564 677.177,76.300 C675.536,78.041 674.308,78.909 673.493,78.909 C673.081,78.909 671.906,78.142 669.963,76.607 C668.016,75.072 665.973,73.230 663.824,71.082 C661.676,68.933 659.681,66.737 657.839,64.482 C655.997,62.233 655.076,60.492 655.076,59.264 L675.949,29.490 C677.790,31.131 679.786,32.972 681.934,35.015 C684.083,37.063 686.126,39.159 688.073,41.308 C690.016,43.457 691.603,45.557 692.831,47.600 C694.059,49.648 694.673,51.389 694.673,52.818 C694.673,53.432 694.620,54.046 694.519,54.660 C694.414,55.274 694.059,55.888 693.445,56.502 Z"/>
</svg>
