<svg
 xmlns="http://www.w3.org/2000/svg"
 xmlns:xlink="http://www.w3.org/1999/xlink"
 width="1012px" height="256px">
<path fill-rule="evenodd"  fill="rgb(0, 0, 0)"
 d="M998.662,66.197 C995.354,167.984 989.756,211.752 973.216,227.529 C962.528,237.453 950.568,241.779 931.229,241.779 C931.229,230.074 929.702,221.422 925.121,216.587 C920.032,210.734 910.362,206.154 897.130,203.100 L897.130,200.301 C910.108,201.319 928.175,202.337 935.300,202.337 C939.881,202.337 942.425,201.319 945.479,198.774 C954.385,191.140 959.220,153.225 962.274,87.572 C946.242,144.827 912.653,196.230 851.071,227.020 L849.036,224.730 C899.929,182.489 925.121,120.907 931.738,60.853 C918.505,105.130 889.750,147.372 848.781,173.582 L846.745,171.038 C873.719,141.010 892.804,98.260 898.911,59.835 C885.425,81.719 868.375,98.260 847.763,110.474 L845.219,108.439 C851.580,98.769 857.433,87.572 862.777,74.849 L840.638,74.849 L840.638,123.452 C850.817,120.907 861.250,118.363 871.683,115.818 L872.192,118.363 C864.049,124.216 853.616,131.595 840.638,139.993 L840.638,235.672 C840.638,238.217 826.643,244.833 813.665,244.833 L806.794,244.833 L806.794,160.604 C800.178,164.676 793.053,168.747 785.419,172.819 C784.147,176.127 781.347,178.926 778.294,179.944 L764.044,139.993 C772.695,138.466 788.218,135.412 806.794,131.086 L806.794,74.849 L791.526,74.849 C785.419,90.880 777.785,105.130 768.115,116.327 L764.553,114.546 C769.896,88.845 772.441,53.474 771.932,22.429 L806.794,28.790 L806.794,3.344 L850.054,7.670 C849.545,11.232 847.763,13.777 840.638,14.795 L840.638,65.179 L852.853,44.313 C852.853,44.313 860.741,52.456 868.121,60.599 C874.228,42.786 879.063,23.192 881.353,3.344 L926.903,16.830 C925.630,20.138 922.577,22.174 916.470,22.174 C912.653,33.116 908.072,43.295 902.983,52.456 L960.492,52.456 L979.577,33.116 L1010.622,60.853 C1008.587,63.143 1004.770,65.179 998.662,66.197 ZM806.794,35.406 C805.776,35.661 804.504,35.915 802.977,36.170 C800.432,47.112 797.633,57.800 794.325,67.724 L806.794,67.724 L806.794,35.406 ZM755.159,212.007 C737.347,216.587 727.677,227.020 723.605,244.833 C702.230,234.654 686.199,220.659 673.730,202.591 C655.154,220.404 630.725,234.909 599.425,245.596 L597.898,243.306 C626.144,225.748 646.756,204.118 661.261,180.198 C652.354,160.095 646.247,136.939 642.176,110.220 C633.524,123.198 623.345,134.903 612.149,144.827 L609.349,143.301 C623.854,106.912 636.069,53.219 639.122,3.344 L690.016,13.777 C688.998,17.085 686.199,19.375 680.091,19.884 C676.020,35.915 671.185,50.929 665.841,64.670 L706.047,64.670 L723.605,41.005 C723.605,41.005 743.708,57.036 755.668,67.724 C754.905,70.523 752.106,71.795 748.289,71.795 L732.003,71.795 C727.168,111.492 716.480,148.390 694.596,178.926 C710.882,192.158 731.239,202.083 755.923,209.208 L755.159,212.007 ZM662.788,71.795 C658.207,82.737 653.118,92.916 647.265,102.331 C653.118,123.707 661.770,141.774 673.221,156.787 C684.672,130.323 690.270,101.568 692.306,71.795 L662.788,71.795 ZM607.823,15.049 L607.823,230.074 C607.823,234.400 592.046,244.833 578.813,244.833 L572.452,244.833 L572.452,163.658 C561.255,172.310 547.768,182.234 532.500,192.667 C529.956,196.230 526.902,198.774 523.848,200.047 L508.326,166.457 C517.996,161.368 519.523,158.569 519.523,152.207 L519.523,28.027 L561.255,32.098 C560.492,35.152 558.965,37.442 553.367,38.206 L553.367,155.006 C559.474,153.225 565.836,151.698 572.452,149.917 L572.452,3.344 L617.238,7.670 C616.729,11.232 614.948,14.031 607.823,15.049 ZM481.629,228.547 C481.120,231.346 464.071,239.489 450.584,239.489 L444.731,239.489 L444.731,215.060 L308.846,215.060 L308.846,227.784 C308.846,232.364 294.086,241.016 278.564,241.016 L272.711,241.016 L272.711,13.522 L311.645,28.790 L442.186,28.790 L458.981,9.960 L491.553,36.170 C489.772,38.460 486.718,40.496 481.629,41.768 L481.629,228.547 ZM444.731,35.915 L308.846,35.915 L308.846,207.935 L444.731,207.935 L444.731,35.915 ZM391.293,77.648 L406.052,61.871 L436.079,84.519 C434.552,86.300 431.499,88.336 426.918,89.354 L426.918,168.238 C426.664,170.274 410.887,177.145 399.436,177.145 L393.838,177.145 L393.838,157.805 L364.065,157.805 L364.065,172.564 C364.065,175.618 350.069,182.997 336.583,182.997 L331.748,182.997 L331.748,64.416 L365.083,77.648 L391.293,77.648 ZM364.065,150.680 L393.838,150.680 L393.838,84.773 L364.065,84.773 L364.065,150.680 ZM237.108,33.371 L206.826,33.371 L206.826,201.319 C206.826,225.494 199.447,242.543 154.406,245.088 C153.643,233.128 150.843,223.967 143.973,218.623 C137.357,213.279 129.723,209.208 109.365,205.900 L109.365,202.846 C109.365,202.846 153.897,205.391 162.803,205.391 C167.384,205.391 169.165,203.355 169.165,199.792 L169.165,33.371 L2.998,33.371 L0.962,26.246 L187.232,26.246 L207.590,0.544 C207.590,0.544 230.746,17.594 244.742,29.299 C243.978,32.098 240.925,33.371 237.108,33.371 ZM96.642,75.612 L112.419,58.309 L144.991,82.992 C143.209,85.028 140.156,87.318 134.812,88.336 L134.812,172.310 C134.557,174.346 116.999,180.453 105.294,180.453 L99.186,180.453 L99.186,158.823 L65.088,158.823 L65.088,179.944 C65.088,183.252 50.329,191.140 35.315,191.140 L30.226,191.140 L30.226,61.362 L66.360,75.612 L96.642,75.612 ZM65.088,151.698 L99.186,151.698 L99.186,82.737 L65.088,82.737 L65.088,151.698 Z"/>
</svg>
