<svg
 xmlns="http://www.w3.org/2000/svg"
 xmlns:xlink="http://www.w3.org/1999/xlink"
 width="755px" height="256px">
<path fill-rule="evenodd"  fill="rgb(0, 0, 0)"
 d="M754.887,209.243 L754.632,212.043 C742.672,215.605 732.239,227.056 728.168,243.088 C707.810,232.909 691.779,219.931 679.056,203.645 C658.189,220.949 631.725,234.690 597.881,243.851 L596.354,241.052 C625.618,226.547 648.774,206.953 666.078,183.797 C656.154,165.221 649.029,143.082 643.685,116.617 C636.814,167.511 617.729,210.261 563.273,243.088 L560.219,239.525 C615.948,180.489 612.894,110.001 613.149,28.063 L590.501,28.063 L588.211,20.938 L688.216,20.938 L701.449,5.161 L734.021,29.335 C732.239,31.880 727.913,33.406 722.315,34.424 C716.971,48.674 706.793,75.394 699.667,92.697 L701.703,92.697 L720.279,74.376 L750.815,101.858 C749.034,104.657 746.744,105.675 740.382,106.439 C732.239,133.921 720.025,159.368 701.958,181.252 C717.226,193.975 734.784,203.391 754.887,209.243 ZM703.485,99.822 L698.141,99.822 L688.216,110.765 L658.189,93.461 C660.480,91.679 663.533,89.389 666.841,87.608 C674.221,71.322 684.145,44.603 689.234,28.063 L648.520,28.063 C648.011,49.692 647.756,70.304 646.484,89.898 C654.372,117.381 666.078,141.046 681.346,160.131 C691.525,141.555 698.904,121.198 703.485,99.822 ZM586.430,48.166 C586.430,48.166 602.207,65.469 609.841,76.157 C609.332,78.956 606.787,80.228 603.224,80.228 L572.688,80.228 L572.688,149.698 C583.376,147.408 594.318,144.863 605.260,142.318 L605.769,144.609 C592.028,156.569 569.635,173.872 535.282,196.266 C534.009,199.828 531.465,202.627 528.157,203.645 L509.071,162.676 C515.433,161.658 525.103,159.622 537.063,157.332 L537.063,80.228 L512.380,80.228 L510.344,73.103 L537.063,73.103 L537.063,4.906 L582.104,8.723 C581.595,12.286 579.813,15.085 572.688,16.103 L572.688,73.103 L586.430,48.166 ZM495.352,226.038 L328.931,226.038 L326.895,218.913 L420.539,218.913 C428.427,176.926 434.789,119.671 437.588,80.228 L487.209,92.188 C486.191,95.496 483.647,98.041 477.031,98.296 C467.361,130.867 449.803,179.980 428.173,218.913 L447.512,218.913 L467.361,192.449 C467.361,192.449 489.754,210.007 502.732,221.967 C501.968,224.766 499.169,226.038 495.352,226.038 ZM492.299,67.505 L348.525,67.505 L346.489,60.380 L447.003,60.380 L465.834,35.442 C465.834,35.442 486.955,52.237 499.424,63.434 C498.915,66.233 495.861,67.505 492.299,67.505 ZM399.164,49.947 C397.637,34.170 389.494,17.884 380.587,7.196 L382.369,5.924 C464.816,10.250 432.499,74.376 399.164,49.947 ZM362.266,84.045 C452.347,160.895 397.891,228.837 375.753,191.176 C376.770,163.439 374.480,119.162 359.467,85.572 L362.266,84.045 ZM331.475,54.018 C331.475,54.018 346.998,71.322 354.886,82.010 C354.123,84.809 351.578,86.081 348.016,86.081 L318.497,86.081 L318.497,154.533 C331.730,152.752 345.980,150.716 360.230,148.426 L360.485,150.716 C344.453,162.167 318.243,178.198 278.546,198.810 C277.019,202.118 273.966,204.917 270.658,205.426 L254.372,162.676 C260.733,161.912 270.658,160.895 282.872,159.368 L282.872,86.081 L258.443,86.081 L256.407,78.956 L282.872,78.956 L282.872,5.670 L327.913,9.487 C327.404,13.049 325.623,15.848 318.497,16.866 L318.497,77.684 L331.475,54.018 ZM239.635,233.418 L67.106,233.418 L65.070,226.293 L114.946,226.293 L114.946,117.381 L153.116,120.943 C152.607,123.488 151.334,125.269 147.008,126.033 L147.008,226.293 L158.205,226.293 L158.205,117.381 L196.630,120.943 C196.375,123.488 195.103,125.269 190.522,126.033 L190.522,226.293 L202.482,226.293 L218.514,202.118 C218.514,202.118 236.581,218.659 246.760,229.346 C245.996,232.145 243.452,233.418 239.635,233.418 ZM235.054,149.698 C224.875,172.600 211.898,194.739 196.630,210.261 L193.067,208.734 C197.647,188.886 202.228,157.841 204.518,131.376 L245.233,144.609 C244.215,147.917 240.907,149.952 235.054,149.698 ZM221.313,28.826 L221.313,110.001 C221.313,111.273 210.371,117.126 192.558,117.126 L186.196,117.126 L186.196,105.166 L118.763,105.166 L118.763,114.073 C118.763,116.108 108.584,121.707 91.535,121.707 L85.427,121.707 L85.427,5.670 L121.307,19.156 L185.179,19.156 L201.464,0.835 L231.237,23.737 C229.710,26.027 227.166,27.808 221.313,28.826 ZM186.196,26.281 L118.763,26.281 L118.763,59.617 L186.196,59.617 L186.196,26.281 ZM186.196,66.742 L118.763,66.742 L118.763,98.041 L186.196,98.041 L186.196,66.742 ZM74.231,133.158 C137.084,173.872 106.294,229.855 80.593,202.118 C81.865,179.725 77.030,154.278 71.177,134.176 L74.231,133.158 ZM51.583,173.109 C52.347,188.377 64.052,196.266 63.289,219.931 C63.034,233.672 52.856,243.088 38.860,243.088 C32.244,243.088 24.864,240.034 22.319,229.601 C27.663,202.627 26.645,176.417 20.538,172.346 C16.976,169.801 12.395,168.529 7.051,168.020 L7.051,163.439 L18.502,163.439 C22.574,163.439 23.592,163.439 26.645,158.095 C32.498,148.426 32.498,148.426 77.793,44.094 L81.610,45.112 C72.958,76.157 58.199,133.412 55.146,147.917 C53.110,156.823 51.583,166.493 51.583,173.109 ZM40.641,46.893 C37.333,32.389 27.663,16.612 19.520,6.178 L21.302,4.906 C97.642,8.723 71.686,66.742 40.641,46.893 ZM15.958,102.113 C15.194,87.862 8.324,72.594 0.944,62.416 L2.980,61.143 C74.485,70.050 44.204,124.251 15.958,102.113 Z"/>
</svg>
